<mxfile>
    <diagram id="m_9Sfj4pGlnvyHmJbWLJ" name="Page-1">
        <mxGraphModel dx="919" dy="623" grid="1" gridSize="10" guides="1" tooltips="1" connect="1" arrows="1" fold="1" page="1" pageScale="1" pageWidth="850" pageHeight="1100" math="0" shadow="0">
            <root>
                <mxCell id="0"/>
                <mxCell id="1" parent="0"/>
                <mxCell id="2" value="" style="edgeStyle=orthogonalEdgeStyle;rounded=0;orthogonalLoop=1;jettySize=auto;html=1;entryX=0.5;entryY=0;entryDx=0;entryDy=0;" edge="1" parent="1" target="7">
                    <mxGeometry relative="1" as="geometry">
                        <mxPoint x="-215" y="120" as="sourcePoint"/>
                        <Array as="points">
                            <mxPoint x="-215" y="120"/>
                            <mxPoint x="-530" y="120"/>
                        </Array>
                    </mxGeometry>
                </mxCell>
                <mxCell id="3" style="edgeStyle=orthogonalEdgeStyle;rounded=0;orthogonalLoop=1;jettySize=auto;html=1;exitX=1;exitY=0.5;exitDx=0;exitDy=0;" edge="1" parent="1" source="5" target="17">
                    <mxGeometry relative="1" as="geometry">
                        <Array as="points">
                            <mxPoint x="-245" y="90"/>
                            <mxPoint x="-245" y="120"/>
                            <mxPoint x="435" y="120"/>
                        </Array>
                    </mxGeometry>
                </mxCell>
                <mxCell id="4" style="edgeStyle=orthogonalEdgeStyle;rounded=0;orthogonalLoop=1;jettySize=auto;html=1;entryX=0;entryY=0.5;entryDx=0;entryDy=0;" edge="1" parent="1" source="5" target="23">
                    <mxGeometry relative="1" as="geometry"/>
                </mxCell>
                <mxCell id="5" value="Home" style="rounded=0;whiteSpace=wrap;html=1;fillColor=#dae8fc;strokeColor=#6c8ebf;" vertex="1" parent="1">
                    <mxGeometry x="-800" y="60" width="120" height="60" as="geometry"/>
                </mxCell>
                <mxCell id="6" style="edgeStyle=orthogonalEdgeStyle;rounded=0;orthogonalLoop=1;jettySize=auto;html=1;exitX=0.5;exitY=1;exitDx=0;exitDy=0;entryX=0;entryY=0.5;entryDx=0;entryDy=0;" edge="1" parent="1" source="7" target="18">
                    <mxGeometry relative="1" as="geometry"/>
                </mxCell>
                <mxCell id="7" value="About" style="rounded=0;whiteSpace=wrap;html=1;fillColor=#dae8fc;strokeColor=#6c8ebf;" vertex="1" parent="1">
                    <mxGeometry x="-590" y="140" width="120" height="60" as="geometry"/>
                </mxCell>
                <mxCell id="8" style="edgeStyle=orthogonalEdgeStyle;rounded=0;orthogonalLoop=1;jettySize=auto;html=1;entryX=0.5;entryY=0;entryDx=0;entryDy=0;" edge="1" parent="1" target="10">
                    <mxGeometry relative="1" as="geometry">
                        <mxPoint x="-380" y="120" as="sourcePoint"/>
                    </mxGeometry>
                </mxCell>
                <mxCell id="9" style="edgeStyle=orthogonalEdgeStyle;rounded=0;orthogonalLoop=1;jettySize=auto;html=1;entryX=0;entryY=0.5;entryDx=0;entryDy=0;" edge="1" parent="1" source="10" target="30">
                    <mxGeometry relative="1" as="geometry"/>
                </mxCell>
                <mxCell id="10" value="Blog" style="rounded=0;whiteSpace=wrap;html=1;fillColor=#dae8fc;strokeColor=#6c8ebf;" vertex="1" parent="1">
                    <mxGeometry x="-420" y="140" width="120" height="60" as="geometry"/>
                </mxCell>
                <mxCell id="11" style="edgeStyle=orthogonalEdgeStyle;rounded=0;orthogonalLoop=1;jettySize=auto;html=1;entryX=0.5;entryY=0;entryDx=0;entryDy=0;" edge="1" parent="1" target="13">
                    <mxGeometry relative="1" as="geometry">
                        <mxPoint x="-215" y="120" as="sourcePoint"/>
                        <Array as="points">
                            <mxPoint x="-190" y="120"/>
                        </Array>
                    </mxGeometry>
                </mxCell>
                <mxCell id="12" style="edgeStyle=orthogonalEdgeStyle;rounded=0;orthogonalLoop=1;jettySize=auto;html=1;exitX=0.5;exitY=1;exitDx=0;exitDy=0;entryX=0;entryY=0.5;entryDx=0;entryDy=0;" edge="1" parent="1" source="13" target="33">
                    <mxGeometry relative="1" as="geometry"/>
                </mxCell>
                <mxCell id="13" value="Community" style="rounded=0;whiteSpace=wrap;html=1;fillColor=#dae8fc;strokeColor=#6c8ebf;" vertex="1" parent="1">
                    <mxGeometry x="-250" y="140" width="120" height="60" as="geometry"/>
                </mxCell>
                <mxCell id="14" style="edgeStyle=orthogonalEdgeStyle;rounded=0;orthogonalLoop=1;jettySize=auto;html=1;entryX=0.5;entryY=0;entryDx=0;entryDy=0;" edge="1" parent="1" target="16">
                    <mxGeometry relative="1" as="geometry">
                        <mxPoint x="11.25" y="120" as="sourcePoint"/>
                    </mxGeometry>
                </mxCell>
                <mxCell id="15" style="edgeStyle=orthogonalEdgeStyle;rounded=0;orthogonalLoop=1;jettySize=auto;html=1;entryX=0;entryY=0.5;entryDx=0;entryDy=0;" edge="1" parent="1" source="16" target="54">
                    <mxGeometry relative="1" as="geometry"/>
                </mxCell>
                <mxCell id="16" value="Developers" style="rounded=0;whiteSpace=wrap;html=1;fillColor=#dae8fc;strokeColor=#6c8ebf;" vertex="1" parent="1">
                    <mxGeometry x="-38.75" y="140" width="120" height="60" as="geometry"/>
                </mxCell>
                <mxCell id="17" value="Forum" style="rounded=0;whiteSpace=wrap;html=1;fillColor=#dae8fc;strokeColor=#6c8ebf;" vertex="1" parent="1">
                    <mxGeometry x="375" y="140" width="120" height="60" as="geometry"/>
                </mxCell>
                <mxCell id="18" value="Smart Contract Flow Diagram" style="whiteSpace=wrap;html=1;aspect=fixed;fillColor=#d5e8d4;strokeColor=#82b366;" vertex="1" parent="1">
                    <mxGeometry x="-490" y="230" width="60" height="60" as="geometry"/>
                </mxCell>
                <mxCell id="19" style="edgeStyle=orthogonalEdgeStyle;rounded=0;orthogonalLoop=1;jettySize=auto;html=1;entryX=0;entryY=0.5;entryDx=0;entryDy=0;" edge="1" parent="1" target="20">
                    <mxGeometry relative="1" as="geometry">
                        <mxPoint x="-530" y="260" as="sourcePoint"/>
                        <Array as="points">
                            <mxPoint x="-530" y="340"/>
                        </Array>
                    </mxGeometry>
                </mxCell>
                <mxCell id="20" value="FAQs" style="whiteSpace=wrap;html=1;aspect=fixed;fillColor=#d5e8d4;strokeColor=#82b366;" vertex="1" parent="1">
                    <mxGeometry x="-490" y="310" width="60" height="60" as="geometry"/>
                </mxCell>
                <mxCell id="21" style="edgeStyle=orthogonalEdgeStyle;rounded=0;orthogonalLoop=1;jettySize=auto;html=1;" edge="1" parent="1" target="22">
                    <mxGeometry relative="1" as="geometry">
                        <mxPoint x="-530" y="340" as="sourcePoint"/>
                        <Array as="points">
                            <mxPoint x="-530" y="430"/>
                        </Array>
                    </mxGeometry>
                </mxCell>
                <mxCell id="22" value="Secret Network Gray Paper" style="whiteSpace=wrap;html=1;aspect=fixed;fillColor=#dae8fc;strokeColor=#6c8ebf;" vertex="1" parent="1">
                    <mxGeometry x="-490" y="400" width="60" height="60" as="geometry"/>
                </mxCell>
                <mxCell id="23" value="SecretSwap Announcement" style="whiteSpace=wrap;html=1;fillColor=#d5e8d4;strokeColor=#82b366;imageAspect=0;expand=1;" vertex="1" parent="1">
                    <mxGeometry x="-720" y="190" width="90" height="50" as="geometry"/>
                </mxCell>
                <mxCell id="24" style="edgeStyle=orthogonalEdgeStyle;rounded=0;orthogonalLoop=1;jettySize=auto;html=1;exitX=0;exitY=0.5;exitDx=0;exitDy=0;entryX=0;entryY=0.5;entryDx=0;entryDy=0;" edge="1" parent="1" target="25">
                    <mxGeometry relative="1" as="geometry">
                        <mxPoint x="-740" y="210" as="sourcePoint"/>
                        <Array as="points">
                            <mxPoint x="-740" y="285"/>
                        </Array>
                    </mxGeometry>
                </mxCell>
                <mxCell id="25" value="Featured Blog Posts" style="whiteSpace=wrap;html=1;fillColor=#d5e8d4;strokeColor=#82b366;imageAspect=0;expand=1;" vertex="1" parent="1">
                    <mxGeometry x="-720" y="260" width="90" height="50" as="geometry"/>
                </mxCell>
                <mxCell id="26" style="edgeStyle=orthogonalEdgeStyle;rounded=0;orthogonalLoop=1;jettySize=auto;html=1;" edge="1" parent="1" target="27">
                    <mxGeometry relative="1" as="geometry">
                        <mxPoint x="-740" y="280" as="sourcePoint"/>
                        <Array as="points">
                            <mxPoint x="-740" y="380"/>
                        </Array>
                    </mxGeometry>
                </mxCell>
                <mxCell id="27" value="Announcement -&amp;nbsp;&lt;span&gt;SCRT 2020: Our Secret Vision for&lt;/span&gt;&lt;div&gt;Universal Finance&lt;/div&gt;" style="whiteSpace=wrap;html=1;fillColor=#d5e8d4;strokeColor=#82b366;imageAspect=0;expand=1;" vertex="1" parent="1">
                    <mxGeometry x="-720" y="330" width="90" height="100" as="geometry"/>
                </mxCell>
                <mxCell id="28" style="edgeStyle=orthogonalEdgeStyle;rounded=0;orthogonalLoop=1;jettySize=auto;html=1;" edge="1" parent="1" target="29">
                    <mxGeometry relative="1" as="geometry">
                        <mxPoint x="-740" y="380" as="sourcePoint"/>
                        <Array as="points">
                            <mxPoint x="-740" y="485"/>
                        </Array>
                    </mxGeometry>
                </mxCell>
                <mxCell id="29" value="Featured Media" style="whiteSpace=wrap;html=1;fillColor=#d5e8d4;strokeColor=#82b366;imageAspect=0;expand=1;" vertex="1" parent="1">
                    <mxGeometry x="-720" y="460" width="90" height="50" as="geometry"/>
                </mxCell>
                <mxCell id="30" value="Featured Blog Posts&lt;span style=&quot;color: rgba(0 , 0 , 0 , 0) ; font-family: monospace ; font-size: 0px&quot;&gt;%3CmxGraphModel%3E%3Croot%3E%3CmxCell%20id%3D%220%22%2F%3E%3CmxCell%20id%3D%221%22%20parent%3D%220%22%2F%3E%3CmxCell%20id%3D%222%22%20value%3D%22Smart%20Contract%20Flow%20Diagram%22%20style%3D%22whiteSpace%3Dwrap%3Bhtml%3D1%3Baspect%3Dfixed%3BfillColor%3D%23d5e8d4%3BstrokeColor%3D%2382b366%3B%22%20vertex%3D%221%22%20parent%3D%221%22%3E%3CmxGeometry%20x%3D%22-500%22%20y%3D%22210%22%20width%3D%2260%22%20height%3D%2260%22%20as%3D%22geometry%22%2F%3E%3C%2FmxCell%3E%3C%2Froot%3E%3C%2FmxGraphModel%3E&lt;/span&gt;" style="whiteSpace=wrap;html=1;aspect=fixed;fillColor=#d5e8d4;strokeColor=#82b366;" vertex="1" parent="1">
                    <mxGeometry x="-340" y="230" width="60" height="60" as="geometry"/>
                </mxCell>
                <mxCell id="31" style="edgeStyle=orthogonalEdgeStyle;rounded=0;orthogonalLoop=1;jettySize=auto;html=1;exitX=0;exitY=0.5;exitDx=0;exitDy=0;entryX=0;entryY=0.5;entryDx=0;entryDy=0;" edge="1" parent="1" target="32">
                    <mxGeometry relative="1" as="geometry">
                        <mxPoint x="-360" y="260" as="sourcePoint"/>
                        <Array as="points">
                            <mxPoint x="-360" y="350"/>
                        </Array>
                    </mxGeometry>
                </mxCell>
                <mxCell id="32" value="All Blog Posts" style="whiteSpace=wrap;html=1;aspect=fixed;fillColor=#d5e8d4;strokeColor=#82b366;" vertex="1" parent="1">
                    <mxGeometry x="-340" y="320" width="60" height="60" as="geometry"/>
                </mxCell>
                <mxCell id="33" value="Secret Agent Photos" style="whiteSpace=wrap;html=1;aspect=fixed;fillColor=#d5e8d4;strokeColor=#82b366;" vertex="1" parent="1">
                    <mxGeometry x="-170" y="230" width="60" height="60" as="geometry"/>
                </mxCell>
                <mxCell id="34" style="edgeStyle=orthogonalEdgeStyle;rounded=0;orthogonalLoop=1;jettySize=auto;html=1;" edge="1" parent="1" target="35">
                    <mxGeometry relative="1" as="geometry">
                        <mxPoint x="-190" y="260" as="sourcePoint"/>
                        <Array as="points">
                            <mxPoint x="-190" y="360"/>
                        </Array>
                    </mxGeometry>
                </mxCell>
                <mxCell id="35" value="Secret Agent Interest form (Google doc)" style="whiteSpace=wrap;html=1;aspect=fixed;fillColor=#fff2cc;strokeColor=#d6b656;" vertex="1" parent="1">
                    <mxGeometry x="-160" y="320" width="80" height="80" as="geometry"/>
                </mxCell>
                <mxCell id="36" style="edgeStyle=orthogonalEdgeStyle;rounded=0;orthogonalLoop=1;jettySize=auto;html=1;" edge="1" parent="1" target="38">
                    <mxGeometry relative="1" as="geometry">
                        <mxPoint x="-190" y="360" as="sourcePoint"/>
                        <Array as="points">
                            <mxPoint x="-190" y="600"/>
                            <mxPoint x="-146" y="600"/>
                        </Array>
                    </mxGeometry>
                </mxCell>
                <mxCell id="37" style="edgeStyle=orthogonalEdgeStyle;rounded=0;orthogonalLoop=1;jettySize=auto;html=1;entryX=0;entryY=0.5;entryDx=0;entryDy=0;entryPerimeter=0;" edge="1" parent="1" source="38" target="45">
                    <mxGeometry relative="1" as="geometry">
                        <Array as="points">
                            <mxPoint x="-151.25" y="840"/>
                        </Array>
                    </mxGeometry>
                </mxCell>
                <mxCell id="38" value="Committees" style="rounded=0;whiteSpace=wrap;html=1;fillColor=#dae8fc;strokeColor=#6c8ebf;" vertex="1" parent="1">
                    <mxGeometry x="-191.25" y="620" width="90" height="60" as="geometry"/>
                </mxCell>
                <mxCell id="39" style="edgeStyle=orthogonalEdgeStyle;rounded=0;orthogonalLoop=1;jettySize=auto;html=1;" edge="1" parent="1" target="40">
                    <mxGeometry relative="1" as="geometry">
                        <mxPoint x="-180" y="600" as="sourcePoint"/>
                        <Array as="points">
                            <mxPoint x="-210" y="600"/>
                            <mxPoint x="-210" y="600"/>
                        </Array>
                    </mxGeometry>
                </mxCell>
                <mxCell id="40" value="Sharing Secrets Podcast" style="rounded=0;whiteSpace=wrap;html=1;fillColor=#dae8fc;strokeColor=#6c8ebf;" vertex="1" parent="1">
                    <mxGeometry x="-405" y="620" width="110" height="60" as="geometry"/>
                </mxCell>
                <mxCell id="41" style="edgeStyle=orthogonalEdgeStyle;rounded=0;orthogonalLoop=1;jettySize=auto;html=1;" edge="1" parent="1" target="42">
                    <mxGeometry relative="1" as="geometry">
                        <mxPoint x="-190" y="460" as="sourcePoint"/>
                    </mxGeometry>
                </mxCell>
                <mxCell id="42" value="Social Media Links" style="whiteSpace=wrap;html=1;aspect=fixed;fillColor=#fff2cc;strokeColor=#d6b656;" vertex="1" parent="1">
                    <mxGeometry x="-160" y="420" width="80" height="80" as="geometry"/>
                </mxCell>
                <mxCell id="43" value="" style="edgeStyle=orthogonalEdgeStyle;rounded=0;orthogonalLoop=1;jettySize=auto;html=1;" edge="1" parent="1" target="44">
                    <mxGeometry relative="1" as="geometry">
                        <mxPoint x="-190" y="538" as="sourcePoint"/>
                    </mxGeometry>
                </mxCell>
                <mxCell id="44" value="Featured Podcasts" style="whiteSpace=wrap;html=1;aspect=fixed;fillColor=#d5e8d4;strokeColor=#82b366;" vertex="1" parent="1">
                    <mxGeometry x="-295" y="510" width="55" height="55" as="geometry"/>
                </mxCell>
                <mxCell id="45" value="Airtable Secret Agent Interest Form" style="whiteSpace=wrap;html=1;aspect=fixed;fillColor=#fff2cc;strokeColor=#d6b656;" vertex="1" parent="1">
                    <mxGeometry x="-121.25" y="800" width="80" height="80" as="geometry"/>
                </mxCell>
                <mxCell id="46" style="edgeStyle=orthogonalEdgeStyle;rounded=0;orthogonalLoop=1;jettySize=auto;html=1;" edge="1" parent="1" target="47">
                    <mxGeometry relative="1" as="geometry">
                        <mxPoint x="-151.25" y="680" as="sourcePoint"/>
                        <Array as="points">
                            <mxPoint x="-151.25" y="750"/>
                        </Array>
                    </mxGeometry>
                </mxCell>
                <mxCell id="47" value="Overview of each committee" style="whiteSpace=wrap;html=1;aspect=fixed;fillColor=#d5e8d4;strokeColor=#82b366;" vertex="1" parent="1">
                    <mxGeometry x="-108.75" y="710" width="70" height="70" as="geometry"/>
                </mxCell>
                <mxCell id="48" style="edgeStyle=orthogonalEdgeStyle;rounded=0;orthogonalLoop=1;jettySize=auto;html=1;" edge="1" parent="1" target="49">
                    <mxGeometry relative="1" as="geometry">
                        <mxPoint x="-151.25" y="840" as="sourcePoint"/>
                        <Array as="points">
                            <mxPoint x="-151.25" y="950"/>
                        </Array>
                    </mxGeometry>
                </mxCell>
                <mxCell id="49" value="Media" style="rounded=0;whiteSpace=wrap;html=1;fillColor=#dae8fc;strokeColor=#6c8ebf;" vertex="1" parent="1">
                    <mxGeometry x="-118.75" y="920" width="90" height="60" as="geometry"/>
                </mxCell>
                <mxCell id="50" style="edgeStyle=orthogonalEdgeStyle;rounded=0;orthogonalLoop=1;jettySize=auto;html=1;exitX=0.5;exitY=1;exitDx=0;exitDy=0;" edge="1" parent="1" source="49" target="51">
                    <mxGeometry relative="1" as="geometry">
                        <Array as="points">
                            <mxPoint x="-73.25" y="1000"/>
                            <mxPoint x="-73.25" y="1060"/>
                        </Array>
                    </mxGeometry>
                </mxCell>
                <mxCell id="51" value="Featured Podcasts and Videos" style="whiteSpace=wrap;html=1;aspect=fixed;fillColor=#d5e8d4;strokeColor=#82b366;" vertex="1" parent="1">
                    <mxGeometry x="-180" y="1010" width="70" height="70" as="geometry"/>
                </mxCell>
                <mxCell id="52" style="edgeStyle=orthogonalEdgeStyle;rounded=0;orthogonalLoop=1;jettySize=auto;html=1;exitX=0.5;exitY=1;exitDx=0;exitDy=0;" edge="1" parent="1" source="40" target="53">
                    <mxGeometry relative="1" as="geometry">
                        <Array as="points">
                            <mxPoint x="-360" y="680"/>
                            <mxPoint x="-360" y="765"/>
                        </Array>
                    </mxGeometry>
                </mxCell>
                <mxCell id="53" value="List of all podcasts" style="whiteSpace=wrap;html=1;aspect=fixed;fillColor=#d5e8d4;strokeColor=#82b366;" vertex="1" parent="1">
                    <mxGeometry x="-320" y="730" width="70" height="70" as="geometry"/>
                </mxCell>
                <mxCell id="54" value="Quickstart &lt;br&gt;build.scrt.network" style="rounded=0;whiteSpace=wrap;html=1;fillColor=#dae8fc;strokeColor=#6c8ebf;" vertex="1" parent="1">
                    <mxGeometry x="63.75" y="260" width="110" height="60" as="geometry"/>
                </mxCell>
                <mxCell id="55" style="edgeStyle=orthogonalEdgeStyle;rounded=0;orthogonalLoop=1;jettySize=auto;html=1;" edge="1" parent="1" target="56">
                    <mxGeometry relative="1" as="geometry">
                        <mxPoint x="21.25" y="290" as="sourcePoint"/>
                        <Array as="points">
                            <mxPoint x="21.25" y="400"/>
                        </Array>
                    </mxGeometry>
                </mxCell>
                <mxCell id="56" value="Github - enigma secret contracts guide" style="whiteSpace=wrap;html=1;aspect=fixed;fillColor=#fff2cc;strokeColor=#d6b656;" vertex="1" parent="1">
                    <mxGeometry x="61.25" y="360" width="90" height="90" as="geometry"/>
                </mxCell>
                <mxCell id="57" style="edgeStyle=orthogonalEdgeStyle;rounded=0;orthogonalLoop=1;jettySize=auto;html=1;" edge="1" parent="1" target="58">
                    <mxGeometry relative="1" as="geometry">
                        <mxPoint x="21.25" y="400" as="sourcePoint"/>
                        <Array as="points">
                            <mxPoint x="21.25" y="510"/>
                        </Array>
                    </mxGeometry>
                </mxCell>
                <mxCell id="58" value="Github - enigma SecretJS templates" style="whiteSpace=wrap;html=1;aspect=fixed;fillColor=#fff2cc;strokeColor=#d6b656;" vertex="1" parent="1">
                    <mxGeometry x="63.75" y="470" width="87.5" height="87.5" as="geometry"/>
                </mxCell>
                <mxCell id="59" style="edgeStyle=orthogonalEdgeStyle;rounded=0;orthogonalLoop=1;jettySize=auto;html=1;" edge="1" parent="1" target="60">
                    <mxGeometry relative="1" as="geometry">
                        <mxPoint x="21.25" y="510" as="sourcePoint"/>
                        <Array as="points">
                            <mxPoint x="21.25" y="610"/>
                        </Array>
                    </mxGeometry>
                </mxCell>
                <mxCell id="60" value="Github - enigma Secret Network Source Code" style="whiteSpace=wrap;html=1;aspect=fixed;fillColor=#fff2cc;strokeColor=#d6b656;" vertex="1" parent="1">
                    <mxGeometry x="63.75" y="570" width="87.5" height="87.5" as="geometry"/>
                </mxCell>
                <mxCell id="61" style="edgeStyle=orthogonalEdgeStyle;rounded=0;orthogonalLoop=1;jettySize=auto;html=1;" edge="1" parent="1" target="62">
                    <mxGeometry relative="1" as="geometry">
                        <mxPoint x="20" y="610" as="sourcePoint"/>
                        <Array as="points">
                            <mxPoint x="20" y="730"/>
                        </Array>
                    </mxGeometry>
                </mxCell>
                <mxCell id="62" value="Announcement - Secret Development Grants" style="whiteSpace=wrap;html=1;fillColor=#d5e8d4;strokeColor=#82b366;imageAspect=0;expand=1;" vertex="1" parent="1">
                    <mxGeometry x="63.75" y="680" width="90" height="100" as="geometry"/>
                </mxCell>
                <mxCell id="63" style="edgeStyle=orthogonalEdgeStyle;rounded=0;orthogonalLoop=1;jettySize=auto;html=1;" edge="1" parent="1" target="64">
                    <mxGeometry relative="1" as="geometry">
                        <mxPoint x="20" y="730" as="sourcePoint"/>
                        <Array as="points">
                            <mxPoint x="20" y="840"/>
                        </Array>
                    </mxGeometry>
                </mxCell>
                <mxCell id="64" value="Grant Application Ideas" style="rounded=0;whiteSpace=wrap;html=1;fillColor=#dae8fc;strokeColor=#6c8ebf;" vertex="1" parent="1">
                    <mxGeometry x="63.75" y="810" width="90" height="60" as="geometry"/>
                </mxCell>
                <mxCell id="65" style="edgeStyle=orthogonalEdgeStyle;rounded=0;orthogonalLoop=1;jettySize=auto;html=1;" edge="1" parent="1" target="66">
                    <mxGeometry relative="1" as="geometry">
                        <mxPoint x="20" y="840" as="sourcePoint"/>
                        <Array as="points">
                            <mxPoint x="20" y="920"/>
                        </Array>
                    </mxGeometry>
                </mxCell>
                <mxCell id="66" value="Grant Application Process" style="rounded=0;whiteSpace=wrap;html=1;fillColor=#dae8fc;strokeColor=#6c8ebf;" vertex="1" parent="1">
                    <mxGeometry x="63.75" y="890" width="90" height="60" as="geometry"/>
                </mxCell>
                <mxCell id="67" style="edgeStyle=orthogonalEdgeStyle;rounded=0;orthogonalLoop=1;jettySize=auto;html=1;" edge="1" parent="1" target="68">
                    <mxGeometry relative="1" as="geometry">
                        <mxPoint x="20" y="920" as="sourcePoint"/>
                        <Array as="points">
                            <mxPoint x="20" y="1000"/>
                        </Array>
                    </mxGeometry>
                </mxCell>
                <mxCell id="68" value="docs.tendermint.com" style="whiteSpace=wrap;html=1;fillColor=#fff2cc;strokeColor=#d6b656;" vertex="1" parent="1">
                    <mxGeometry x="63.75" y="980" width="128.75" height="40" as="geometry"/>
                </mxCell>
                <mxCell id="69" style="edgeStyle=orthogonalEdgeStyle;rounded=0;orthogonalLoop=1;jettySize=auto;html=1;" edge="1" parent="1" target="70">
                    <mxGeometry relative="1" as="geometry">
                        <mxPoint x="20" y="1000" as="sourcePoint"/>
                        <Array as="points">
                            <mxPoint x="20" y="1060"/>
                        </Array>
                    </mxGeometry>
                </mxCell>
                <mxCell id="70" value="Keplr Wallet" style="whiteSpace=wrap;html=1;fillColor=#fff2cc;strokeColor=#d6b656;" vertex="1" parent="1">
                    <mxGeometry x="63.75" y="1040" width="128.75" height="40" as="geometry"/>
                </mxCell>
                <mxCell id="71" style="edgeStyle=orthogonalEdgeStyle;rounded=0;orthogonalLoop=1;jettySize=auto;html=1;" edge="1" parent="1" target="73">
                    <mxGeometry relative="1" as="geometry">
                        <mxPoint x="240" y="120" as="sourcePoint"/>
                    </mxGeometry>
                </mxCell>
                <mxCell id="72" style="edgeStyle=orthogonalEdgeStyle;rounded=0;orthogonalLoop=1;jettySize=auto;html=1;exitX=0.5;exitY=1;exitDx=0;exitDy=0;entryX=0;entryY=0.5;entryDx=0;entryDy=0;" edge="1" parent="1" source="73" target="74">
                    <mxGeometry relative="1" as="geometry"/>
                </mxCell>
                <mxCell id="73" value="Ecosystem" style="rounded=0;whiteSpace=wrap;html=1;fillColor=#dae8fc;strokeColor=#6c8ebf;" vertex="1" parent="1">
                    <mxGeometry x="180" y="140" width="120" height="60" as="geometry"/>
                </mxCell>
                <mxCell id="74" value="List of top contributors" style="whiteSpace=wrap;html=1;aspect=fixed;fillColor=#d5e8d4;strokeColor=#82b366;" vertex="1" parent="1">
                    <mxGeometry x="270" y="230" width="60" height="60" as="geometry"/>
                </mxCell>
                <mxCell id="75" style="edgeStyle=orthogonalEdgeStyle;rounded=0;orthogonalLoop=1;jettySize=auto;html=1;" edge="1" parent="1" target="76">
                    <mxGeometry relative="1" as="geometry">
                        <mxPoint x="240" y="260" as="sourcePoint"/>
                        <Array as="points">
                            <mxPoint x="240" y="340"/>
                        </Array>
                    </mxGeometry>
                </mxCell>
                <mxCell id="76" value="Contributor Page" style="rounded=0;whiteSpace=wrap;html=1;fillColor=#dae8fc;strokeColor=#6c8ebf;" vertex="1" parent="1">
                    <mxGeometry x="270" y="310" width="120" height="60" as="geometry"/>
                </mxCell>
                <mxCell id="77" style="edgeStyle=orthogonalEdgeStyle;rounded=0;orthogonalLoop=1;jettySize=auto;html=1;" edge="1" parent="1" target="78">
                    <mxGeometry relative="1" as="geometry">
                        <mxPoint x="240" y="340" as="sourcePoint"/>
                        <Array as="points">
                            <mxPoint x="240" y="450"/>
                        </Array>
                    </mxGeometry>
                </mxCell>
                <mxCell id="78" value="Announcement: Secret Network November 2020 Ecosystem Update" style="whiteSpace=wrap;html=1;aspect=fixed;fillColor=#d5e8d4;strokeColor=#82b366;" vertex="1" parent="1">
                    <mxGeometry x="270" y="400" width="100" height="100" as="geometry"/>
                </mxCell>
                <mxCell id="79" style="edgeStyle=orthogonalEdgeStyle;rounded=0;orthogonalLoop=1;jettySize=auto;html=1;" edge="1" parent="1" target="80">
                    <mxGeometry relative="1" as="geometry">
                        <mxPoint x="240" y="450" as="sourcePoint"/>
                        <Array as="points">
                            <mxPoint x="240" y="564"/>
                        </Array>
                    </mxGeometry>
                </mxCell>
                <mxCell id="80" value="Exchange and Wallet Support Links" style="whiteSpace=wrap;html=1;aspect=fixed;fillColor=#fff2cc;strokeColor=#d6b656;" vertex="1" parent="1">
                    <mxGeometry x="270" y="520" width="87.5" height="87.5" as="geometry"/>
                </mxCell>
                <mxCell id="81" style="edgeStyle=orthogonalEdgeStyle;rounded=0;orthogonalLoop=1;jettySize=auto;html=1;" edge="1" parent="1" target="82">
                    <mxGeometry relative="1" as="geometry">
                        <mxPoint x="240" y="560" as="sourcePoint"/>
                        <Array as="points">
                            <mxPoint x="240" y="670"/>
                        </Array>
                    </mxGeometry>
                </mxCell>
                <mxCell id="82" value="Block Explorers and Staking Links" style="whiteSpace=wrap;html=1;aspect=fixed;fillColor=#fff2cc;strokeColor=#d6b656;" vertex="1" parent="1">
                    <mxGeometry x="270" y="630" width="80" height="80" as="geometry"/>
                </mxCell>
                <mxCell id="83" style="edgeStyle=orthogonalEdgeStyle;rounded=0;orthogonalLoop=1;jettySize=auto;html=1;" edge="1" parent="1" target="84">
                    <mxGeometry relative="1" as="geometry">
                        <mxPoint x="240" y="670" as="sourcePoint"/>
                        <Array as="points">
                            <mxPoint x="240" y="770"/>
                        </Array>
                    </mxGeometry>
                </mxCell>
                <mxCell id="84" value="Staking Rewards Calculators Links" style="whiteSpace=wrap;html=1;aspect=fixed;fillColor=#fff2cc;strokeColor=#d6b656;" vertex="1" parent="1">
                    <mxGeometry x="270" y="730" width="80" height="80" as="geometry"/>
                </mxCell>
                <mxCell id="85" style="edgeStyle=orthogonalEdgeStyle;rounded=0;orthogonalLoop=1;jettySize=auto;html=1;" edge="1" parent="1" target="86">
                    <mxGeometry relative="1" as="geometry">
                        <mxPoint x="400" y="120" as="sourcePoint"/>
                        <Array as="points">
                            <mxPoint x="580" y="120"/>
                        </Array>
                    </mxGeometry>
                </mxCell>
                <mxCell id="86" value="Footer&lt;br&gt;(Note: only including pages not linked elsewhere" style="whiteSpace=wrap;html=1;fillColor=#d5e8d4;strokeColor=#82b366;" vertex="1" parent="1">
                    <mxGeometry x="530" y="140" width="130" height="60" as="geometry"/>
                </mxCell>
                <mxCell id="87" style="edgeStyle=orthogonalEdgeStyle;rounded=0;orthogonalLoop=1;jettySize=auto;html=1;" edge="1" parent="1" target="88">
                    <mxGeometry relative="1" as="geometry">
                        <mxPoint x="580" y="200" as="sourcePoint"/>
                        <Array as="points">
                            <mxPoint x="580" y="270"/>
                        </Array>
                    </mxGeometry>
                </mxCell>
                <mxCell id="88" value="Branding Page" style="rounded=0;whiteSpace=wrap;html=1;fillColor=#dae8fc;strokeColor=#6c8ebf;" vertex="1" parent="1">
                    <mxGeometry x="620" y="240" width="120" height="60" as="geometry"/>
                </mxCell>
                <mxCell id="89" style="edgeStyle=orthogonalEdgeStyle;rounded=0;orthogonalLoop=1;jettySize=auto;html=1;" edge="1" parent="1" target="90">
                    <mxGeometry relative="1" as="geometry">
                        <mxPoint x="580" y="270" as="sourcePoint"/>
                        <Array as="points">
                            <mxPoint x="580" y="370"/>
                        </Array>
                    </mxGeometry>
                </mxCell>
                <mxCell id="90" value="FAQ Page" style="rounded=0;whiteSpace=wrap;html=1;fillColor=#dae8fc;strokeColor=#6c8ebf;" vertex="1" parent="1">
                    <mxGeometry x="620" y="340" width="120" height="60" as="geometry"/>
                </mxCell>
                <mxCell id="91" style="edgeStyle=orthogonalEdgeStyle;rounded=0;orthogonalLoop=1;jettySize=auto;html=1;" edge="1" parent="1" target="92">
                    <mxGeometry relative="1" as="geometry">
                        <mxPoint x="580" y="370" as="sourcePoint"/>
                        <Array as="points">
                            <mxPoint x="580" y="466"/>
                        </Array>
                    </mxGeometry>
                </mxCell>
                <mxCell id="92" value="Github link for secret network website development" style="whiteSpace=wrap;html=1;aspect=fixed;fillColor=#fff2cc;strokeColor=#d6b656;" vertex="1" parent="1">
                    <mxGeometry x="620" y="420" width="87.5" height="87.5" as="geometry"/>
                </mxCell>
                <mxCell id="93" value="Site Page" style="rounded=0;whiteSpace=wrap;html=1;fillColor=#dae8fc;strokeColor=#6c8ebf;" vertex="1" parent="1">
                    <mxGeometry x="-500" y="10" width="60" height="30" as="geometry"/>
                </mxCell>
                <mxCell id="94" value="Link to External Site" style="rounded=0;whiteSpace=wrap;html=1;fillColor=#fff2cc;strokeColor=#d6b656;" vertex="1" parent="1">
                    <mxGeometry x="-420" y="10" width="80" height="30" as="geometry"/>
                </mxCell>
                <mxCell id="95" value="Content" style="rounded=0;whiteSpace=wrap;html=1;fillColor=#d5e8d4;strokeColor=#82b366;" vertex="1" parent="1">
                    <mxGeometry x="-310" y="10" width="80" height="30" as="geometry"/>
                </mxCell>
                <mxCell id="96" value="Key:" style="text;html=1;strokeColor=none;fillColor=none;align=center;verticalAlign=middle;whiteSpace=wrap;rounded=0;" vertex="1" parent="1">
                    <mxGeometry x="-560" y="15" width="40" height="20" as="geometry"/>
                </mxCell>
            </root>
        </mxGraphModel>
    </diagram>
</mxfile>